<svg width="59" height="18" viewBox="0 0 59 18" fill="none" xmlns="http://www.w3.org/2000/svg">
<rect width="59" height="18" fill="#F5F5F5"/>
<g clip-path="url(#clip0_83_1573)">
<rect width="1920" height="3522" transform="translate(-442 -25)" fill="white"/>
<rect x="-447" y="-25" width="1920" height="922" fill="#FCFEF6"/>
<mask id="path-2-inside-1_83_1573" fill="white">
<path d="M-442 -25H1478V43H-442V-25Z"/>
</mask>
<path d="M1478 43V42H-442V43V44H1478V43Z" fill="#E5E5E5" mask="url(#path-2-inside-1_83_1573)"/>
<path d="M58.6601 16.496V17.7594H48.9061V16.496H58.6601ZM49.3468 0.240642V17.7594H47.8819V0.240642H49.3468ZM57.4453 8.09759V9.36096H48.9061V8.09759H57.4453ZM58.6005 0.240642V1.51604H48.9061V0.240642H58.6005Z" fill="black"/>
<path d="M32.3398 0.240642H37.973C39.1719 0.240642 40.212 0.437166 41.0934 0.830214C41.9747 1.22326 42.6535 1.80481 43.1299 2.57487C43.6142 3.3369 43.8564 4.2754 43.8564 5.39037C43.8564 6.21658 43.6817 6.96658 43.3324 7.64037C42.991 8.31417 42.5185 8.87968 41.9151 9.3369C41.3117 9.7861 40.613 10.0949 39.819 10.2634L39.3069 10.4559H33.2925L33.2687 9.19251H38.3065C39.2116 9.19251 39.9659 9.01604 40.5693 8.6631C41.1728 8.31016 41.6253 7.84492 41.927 7.26738C42.2367 6.68182 42.3915 6.05615 42.3915 5.39037C42.3915 4.59626 42.2208 3.91043 41.8794 3.33289C41.5459 2.74733 41.0497 2.29813 40.3907 1.98529C39.7317 1.67246 38.9258 1.51604 37.973 1.51604H33.8047V17.7594H32.3398V0.240642ZM43.0465 17.7594L38.5566 9.92647L40.1287 9.91444L44.6067 17.6029V17.7594H43.0465Z" fill="black"/>
<path d="M22.824 1.28743L16.8215 17.7594H15.2971L21.8474 0.240642H22.9073L22.824 1.28743ZM28.2786 17.7594L22.2642 1.28743L22.1808 0.240642H23.2408L29.803 17.7594H28.2786ZM27.2067 11.5749V12.8503H18.0005V11.5749H27.2067Z" fill="black"/>
<path d="M12.0934 12.2968H13.5582C13.4391 13.4759 13.1176 14.4947 12.5936 15.3529C12.0695 16.2032 11.355 16.857 10.4498 17.3142C9.54469 17.7714 8.45298 18 7.17467 18C6.19014 18 5.29692 17.8115 4.495 17.4345C3.70103 17.0575 3.01821 16.5241 2.44654 15.8342C1.87488 15.1364 1.43422 14.3021 1.12457 13.3316C0.814921 12.361 0.660095 11.2821 0.660095 10.0949V7.90508C0.660095 6.71791 0.814921 5.64305 1.12457 4.68048C1.43422 3.70989 1.87885 2.87567 2.45845 2.17781C3.03806 1.47995 3.73278 0.942514 4.54264 0.565508C5.3525 0.188503 6.26557 0 7.28186 0C8.51253 0 9.57645 0.22861 10.4736 0.685829C11.3708 1.13503 12.0775 1.78476 12.5936 2.63503C13.1176 3.48529 13.4391 4.51203 13.5582 5.71524H12.0934C11.9822 4.76872 11.7361 3.96658 11.355 3.30882C10.9739 2.65107 10.4459 2.14973 9.77098 1.80481C9.10404 1.45187 8.27433 1.2754 7.28186 1.2754C6.472 1.2754 5.74949 1.43182 5.1143 1.74465C4.47912 2.05749 3.93922 2.50668 3.49459 3.09225C3.04997 3.66979 2.70856 4.36364 2.47036 5.1738C2.24011 5.98396 2.12498 6.88636 2.12498 7.88102V10.0949C2.12498 11.0575 2.23614 11.9438 2.45845 12.754C2.68077 13.5642 3.0063 14.266 3.43504 14.8596C3.87173 15.4532 4.4037 15.9144 5.03094 16.2433C5.65818 16.5722 6.37276 16.7366 7.17467 16.7366C8.1989 16.7366 9.05243 16.5722 9.73525 16.2433C10.426 15.9064 10.9619 15.4091 11.3431 14.7513C11.7242 14.0936 11.9743 13.2754 12.0934 12.2968Z" fill="black"/>
</g>
<defs>
<clipPath id="clip0_83_1573">
<rect width="1920" height="3522" fill="white" transform="translate(-442 -25)"/>
</clipPath>
</defs>
</svg>
