<svg width="86" height="18" viewBox="0 0 86 18" fill="none" xmlns="http://www.w3.org/2000/svg">
<rect width="86" height="18" fill="#F5F5F5"/>
<g clip-path="url(#clip0_83_1573)">
<rect width="1920" height="3522" transform="translate(-333 -25)" fill="white"/>
<rect x="-338" y="-25" width="1920" height="922" fill="#FCFEF6"/>
<mask id="path-2-inside-1_83_1573" fill="white">
<path d="M-333 -25H1587V43H-333V-25Z"/>
</mask>
<path d="M1587 43V42H-333V43V44H1587V43Z" fill="#E5E5E5" mask="url(#path-2-inside-1_83_1573)"/>
<path fill-rule="evenodd" clip-rule="evenodd" d="M7.76753 13.1294C10.1027 13.1294 11.3297 11.5627 11.3297 9.09492C11.3297 6.68905 10.1345 5.29021 7.86216 5.29021H5.80342V13.1294H7.76753ZM0.820923 0.967957H8.08725C13.6828 0.967957 16.608 4.1932 16.608 9.01415C16.6444 13.8699 13.5478 17.5015 7.8507 17.4516H0.820923V0.967957Z" fill="#061F19"/>
<path fill-rule="evenodd" clip-rule="evenodd" d="M79.4465 15.1492C80.3618 15.1492 81.0087 14.6355 81.0087 13.9303C81.0087 13.2255 80.3773 12.7123 79.4465 12.7123C78.5157 12.7123 77.9082 13.2062 77.9082 13.9419C77.9082 14.6776 78.4998 15.1492 79.4465 15.1492ZM79.2219 5.32106C83.4071 5.32106 85.6601 7.58957 85.6601 11.1031V17.6431H80.9022V16.356C80.2239 17.3978 78.9734 18 77.5058 18C75.1956 18 73.5293 16.4087 73.5293 14.2524C73.5293 11.8683 75.3365 10.4593 77.8962 10.4593C79.206 10.4593 80.2079 10.8192 80.9022 11.5394C80.8867 9.91515 79.8962 9.07982 78.0028 9.07982C76.4879 9.07982 75.1269 9.57028 74.1802 10.2755V6.58543C75.5058 5.81926 77.328 5.32106 79.2219 5.32106Z" fill="#061F19"/>
<path fill-rule="evenodd" clip-rule="evenodd" d="M24.2515 8.68947C23.0523 8.68947 22.3068 9.35987 22.1803 10.4936H26.2281C26.1648 9.31392 25.4661 8.68947 24.2515 8.68947ZM30.2519 12.8961H22.251C22.8038 13.908 24.0702 14.4942 26.0737 14.4942C27.4073 14.4942 28.6145 14.1915 29.6956 13.5864V16.7129C28.6538 17.4636 26.9143 18 24.7371 18C20.139 18 17.2571 15.5105 17.2571 11.5858C17.2167 7.90299 20.008 5.28042 24.0857 5.32154C28.0941 5.32154 30.2519 7.41737 30.2519 11.3565V12.8961Z" fill="#061F19"/>
<path fill-rule="evenodd" clip-rule="evenodd" d="M56.7286 17.4719H61.5931V5.50632H56.7286V17.4719ZM59.1663 4.57522C57.6783 4.57522 56.5986 3.6654 56.5986 2.26463C56.5986 0.931096 57.6245 -7.62939e-06 59.1663 -7.62939e-06C60.6977 -7.62939e-06 61.7106 0.931096 61.7106 2.26463C61.7106 3.6654 60.618 4.57522 59.1663 4.57522Z" fill="#061F19"/>
<path fill-rule="evenodd" clip-rule="evenodd" d="M39.7806 5.32106C42.4847 5.32106 44.1002 7.11023 44.1002 10.1144V17.6436H39.2363V11.1834C39.2363 9.88081 38.7273 9.22928 37.7094 9.22928C36.6208 9.22928 36.0645 10.0225 36.0645 11.2637V17.6436H31.2005V5.67754H35.9699V7.36707C36.6163 6.14092 37.9345 5.32106 39.7806 5.32106Z" fill="#061F19"/>
<path fill-rule="evenodd" clip-rule="evenodd" d="M55.6772 9.44002H52.7185V17.6357H47.8541V9.44002H45.1444V5.67014H47.8541V2.34816L52.7185 1.45139V5.67014H55.6772V9.44002Z" fill="#061F19"/>
<path fill-rule="evenodd" clip-rule="evenodd" d="M71.0712 5.32106C71.6395 5.32106 72.1604 5.45504 72.6335 5.72349V10.0457C72.2072 9.78504 71.5209 9.59737 70.6688 9.59737C68.8701 9.59737 67.9348 10.6315 67.9348 12.6548V17.5052H63.0714V5.53969H67.9348V8.06842C68.4557 6.10657 69.5249 5.32106 71.0712 5.32106Z" fill="#061F19"/>
</g>
<defs>
<clipPath id="clip0_83_1573">
<rect width="1920" height="3522" fill="white" transform="translate(-333 -25)"/>
</clipPath>
</defs>
</svg>
