<svg width="157" height="24" viewBox="0 0 157 24" fill="none" xmlns="http://www.w3.org/2000/svg">
<path fill-rule="evenodd" clip-rule="evenodd" d="M13.6873 1.31712C10.9903 1.31712 7.64666 -0.896986 4.27135 0.416585C1.47279 1.5068 -0.543384 4.86488 0.130704 10.1192C0.968446 16.6397 7.77868 24 8.47406 24L13.6873 17.2289L25.3883 2.03506C24.7349 1.29053 23.9562 0.748079 23.1044 0.416585C22.3324 0.116407 21.5616 0 20.8005 0C18.2331 0 15.7686 1.31712 13.6873 1.31712Z" fill="url(#paint0_linear_467_2952)"/>
<path fill-rule="evenodd" clip-rule="evenodd" d="M27.6904 10.1195C26.8527 16.6395 20.043 23.9997 19.3477 23.9997L14.1332 17.2286L2.4328 2.03479C3.0862 1.29026 3.86493 0.7484 4.71606 0.416314C8.09197 -0.897257 11.4356 1.31744 14.1332 1.31744C16.8308 1.31744 20.1744 -0.897257 23.5497 0.416314C26.3483 1.50652 28.3645 4.86461 27.6904 10.1195Z" fill="#00AD6F"/>
<path d="M39.8209 0V24" stroke="#171717" stroke-width="0.90862"/>
<path d="M103.821 19.496V20.7594H94.0669V19.496H103.821ZM94.5076 3.24064V20.7594H93.0427V3.24064H94.5076ZM102.606 11.0976V12.361H94.0669V11.0976H102.606ZM103.761 3.24064V4.51604H94.0669V3.24064H103.761Z" fill="black"/>
<path d="M77.5006 3.24064H83.1339C84.3328 3.24064 85.3729 3.43717 86.2542 3.83021C87.1355 4.22326 87.8144 4.80481 88.2907 5.57487C88.7751 6.3369 89.0172 7.2754 89.0172 8.39037C89.0172 9.21658 88.8426 9.96658 88.4932 10.6404C88.1518 11.3142 87.6794 11.8797 87.076 12.3369C86.4725 12.7861 85.7738 13.0949 84.9799 13.2634L84.4677 13.4559H78.4534L78.4296 12.1925H83.4673C84.3725 12.1925 85.1267 12.016 85.7302 11.6631C86.3336 11.3102 86.7862 10.8449 87.0879 10.2674C87.3975 9.68182 87.5523 9.05615 87.5523 8.39037C87.5523 7.59626 87.3816 6.91043 87.0402 6.33289C86.7068 5.74733 86.2105 5.29813 85.5515 4.98529C84.8925 4.67246 84.0866 4.51604 83.1339 4.51604H78.9655V20.7594H77.5006V3.24064ZM88.2074 20.7594L83.7174 12.9265L85.2895 12.9144L89.7675 20.6029V20.7594H88.2074Z" fill="black"/>
<path d="M67.9848 4.28743L61.9823 20.7594H60.4579L67.0082 3.24064H68.0681L67.9848 4.28743ZM73.4394 20.7594L67.425 4.28743L67.3417 3.24064H68.4016L74.9638 20.7594H73.4394ZM72.3675 14.5749V15.8503H63.1614V14.5749H72.3675Z" fill="black"/>
<path d="M57.2542 15.2968H58.7191C58.6 16.4759 58.2784 17.4947 57.7544 18.3529C57.2304 19.2032 56.5158 19.857 55.6107 20.3142C54.7055 20.7714 53.6138 21 52.3355 21C51.351 21 50.4577 20.8115 49.6558 20.4345C48.8619 20.0575 48.179 19.5241 47.6074 18.8342C47.0357 18.1364 46.5951 17.3021 46.2854 16.3316C45.9757 15.361 45.8209 14.2821 45.8209 13.0949V10.9051C45.8209 9.71791 45.9757 8.64305 46.2854 7.68048C46.5951 6.70989 47.0397 5.87567 47.6193 5.17781C48.1989 4.47995 48.8936 3.94251 49.7035 3.56551C50.5133 3.1885 51.4264 3 52.4427 3C53.6734 3 54.7373 3.22861 55.6345 3.68583C56.5317 4.13503 57.2383 4.78476 57.7544 5.63503C58.2784 6.48529 58.6 7.51203 58.7191 8.71524H57.2542C57.143 7.76872 56.8969 6.96658 56.5158 6.30882C56.1347 5.65107 55.6067 5.14973 54.9318 4.80481C54.2649 4.45187 53.4352 4.2754 52.4427 4.2754C51.6328 4.2754 50.9103 4.43182 50.2751 4.74465C49.64 5.05749 49.1 5.50668 48.6554 6.09225C48.2108 6.66979 47.8694 7.36364 47.6312 8.1738C47.4009 8.98396 47.2858 9.88636 47.2858 10.881V13.0949C47.2858 14.0575 47.397 14.9438 47.6193 15.754C47.8416 16.5642 48.1671 17.266 48.5959 17.8596C49.0326 18.4532 49.5645 18.9144 50.1918 19.2433C50.819 19.5722 51.5336 19.7366 52.3355 19.7366C53.3597 19.7366 54.2133 19.5722 54.8961 19.2433C55.5868 18.9064 56.1228 18.4091 56.5039 17.7513C56.885 17.0936 57.1351 16.2754 57.2542 15.2968Z" fill="black"/>
<defs>
<linearGradient id="paint0_linear_467_2952" x1="1762.35" y1="1435.34" x2="673.186" y2="-143.047" gradientUnits="userSpaceOnUse">
<stop stop-color="#00AC6E"/>
<stop offset="1" stop-color="#177966"/>
</linearGradient>
</defs>
</svg>
