<svg width="204" height="405" viewBox="0 0 204 405" fill="none" xmlns="http://www.w3.org/2000/svg">
<g clip-path="url(#clip0_86_13745)">
<rect x="2.38086" width="160" height="405" rx="80" fill="#E4FFEC"/>
<path d="M66.3746 -11.9488C125.893 -22.3703 183.271 5.29766 213.517 53.5081C184.685 35.9914 149.621 28.4529 113.78 34.7287C35.3013 48.4704 -17.1784 123.23 -3.43695 201.709C-0.117043 220.669 6.76429 238.112 16.3991 253.47C-17.8995 232.631 -43.3775 197.67 -50.8434 155.033C-64.5852 76.5533 -12.1047 1.79292 66.3746 -11.9488Z" fill="#CEF7DE" fill-opacity="0.5"/>
<path d="M202.028 346.125C224.813 290.167 209.926 228.238 169.221 188.469C180.232 220.354 180.174 256.214 166.453 289.91C136.405 363.7 52.2288 399.16 -21.5612 369.113C-39.3932 361.851 -54.9874 351.43 -67.959 338.757C-54.8569 376.695 -26.0812 409.002 14.0123 425.328C87.8024 455.376 171.98 419.915 202.028 346.125Z" fill="#BFF4D4" fill-opacity="0.5"/>
<path d="M97.498 12.9393C79.1647 9.77262 38.198 12.8393 20.998 50.4393C27.498 38.606 51.898 14.5394 97.498 12.9393Z" fill="white"/>
<path d="M106.076 387.707C117.982 385.243 142.175 373.597 143.698 346.726C142.557 355.442 133.436 375.842 106.076 387.707Z" fill="white"/>
<path opacity="0.4" d="M65.9963 330.367C67.2023 342.903 49.2551 336.631 33.4368 342.441C14.643 349.345 -11.5962 345.153 -11.4547 337.049C-11.3132 328.944 14.4011 317.68 31.7228 327.731C49.0446 337.781 52.2182 307.691 65.9963 330.367Z" fill="#A8C3D4"/>
<path d="M28.2659 321.184L33.9887 312.398L43.4887 311.346L38.198 322.843C36.664 323.86 33.4967 325.909 33.0997 325.972C32.7027 326.035 28.063 325.231 25.7927 324.821L28.2659 321.184Z" fill="#FABF8C"/>
<path d="M41.4044 329.539L39.6681 324.549C39.6681 324.549 42.0789 322.896 42.0629 321.428C42.0506 320.29 40.5754 318.889 40.5754 318.889C40.5754 318.889 36.9839 322.029 34.3209 321.722C32.6646 321.531 30.5698 319.915 30.5698 319.915L32.6557 316.43L30.1547 315.734C30.1547 315.734 28.1075 318.142 26.4012 319.263C24.1104 320.767 22.3904 320.911 19.73 321.725C14.0478 323.466 4.72101 324.408 4.72101 324.408C4.72101 324.408 3.15486 325.137 3.05278 325.976C2.92518 327.026 5.13637 327.827 5.13637 327.827C5.13637 327.827 11.2445 330.788 15.557 330.983C20.2048 331.192 22.779 329.772 27.2309 328.388C28.2142 328.082 34.3317 325.175 34.3317 325.175L37.3456 330.675L41.4044 329.539Z" fill="#252B41"/>
<path d="M34.6671 327.146L40.202 317.851L49.5025 316.925L44.4134 329.134C42.9187 330.191 39.832 332.319 39.4435 332.379C39.055 332.438 34.5018 331.479 32.2737 330.991L34.6671 327.146Z" fill="#FABF8C"/>
<path d="M47.6103 336.376L45.8674 330.992C45.8674 330.992 48.2161 329.272 48.1883 327.698C48.1667 326.478 46.7096 324.946 46.7096 324.946C46.7096 324.946 43.2162 328.235 40.6042 327.85C38.9795 327.611 36.9134 325.835 36.9134 325.835L38.9286 322.144L36.472 321.345C36.472 321.345 34.4859 323.883 32.8232 325.048C30.5908 326.612 28.9066 326.729 26.3063 327.546C20.7527 329.292 11.6211 330.105 11.6211 330.105C11.6211 330.105 10.0924 330.853 9.99934 331.75C9.88301 332.872 12.0564 333.778 12.0564 333.778C12.0564 333.778 18.0664 337.08 22.294 337.379C26.8501 337.701 29.3608 336.234 33.7119 334.844C34.6729 334.537 40.6434 331.551 40.6434 331.551L43.6424 337.508L47.6103 336.376Z" fill="#252B41"/>
<rect opacity="0.7" x="-16.8379" y="179.311" width="142.46" height="29.4746" fill="#ABCEC2"/>
<path opacity="0.7" d="M-189.623 179V189H129.686L132.377 179H-189.623Z" fill="#A6D7C6"/>
<g clip-path="url(#clip1_86_13745)">
<path d="M35.6086 171.394V182.216C35.6086 182.56 35.3276 182.836 34.9842 182.836H21.3966C21.0531 182.836 20.7745 182.56 20.7745 182.216V171.394C20.7745 169.719 21.7641 168.163 23.3301 167.325V166.41H22.6769C22.331 166.41 22.0524 166.131 22.0524 165.79V161.822C22.0524 161.481 22.331 161.202 22.6769 161.202H33.5454C33.8913 161.202 34.1699 161.481 34.1699 161.822V165.79C34.1699 166.131 33.8913 166.41 33.5454 166.41H33.0507V167.325C34.6167 168.163 35.6086 169.719 35.6086 171.394ZM34.3597 181.597V179.548H22.0212V181.597H34.3597ZM34.3597 178.309V171.394C34.3597 171.245 34.3477 171.096 34.3285 170.952H22.0548C22.0332 171.096 22.0212 171.245 22.0212 171.394V178.309H34.3597ZM22.5088 169.712H33.8721C33.495 169.105 32.9114 168.603 32.1764 168.278C31.9482 168.18 31.8017 167.959 31.8017 167.711V166.41H24.5792V167.711C24.5792 167.959 24.4327 168.18 24.2069 168.278C23.4695 168.6 22.8882 169.105 22.5088 169.712ZM32.921 165.17V162.442H31.66V165.17H32.921ZM30.411 165.17V162.442H28.9698V165.17H30.411ZM27.7209 165.17V162.442H26.1212V165.17H27.7209ZM24.8746 165.17V162.442H23.3014V165.17H24.8746Z" fill="#52A273"/>
<path d="M34.3597 179.548H22.0211V181.597H34.3597V179.548Z" fill="#EAEFED"/>
<path d="M34.3597 171.394V178.309H22.0211V171.394C22.0211 171.245 22.0332 171.096 22.0547 170.952H34.3284C34.3477 171.096 34.3597 171.245 34.3597 171.394ZM30.7425 175.424V173.332H29.1645V171.763H27.058V173.332H25.4775V175.424H27.0579V176.992H29.1644V175.424H30.7425Z" fill="#CBF2D3"/>
<path d="M33.8724 169.712H22.5089C22.8884 169.105 23.4697 168.6 24.2071 168.278C24.4328 168.18 24.5794 167.959 24.5794 167.711V166.41H31.8019V167.711C31.8019 167.959 31.9484 168.18 32.1765 168.278C32.9116 168.603 33.4953 169.105 33.8724 169.712Z" fill="#EAEFED"/>
<path d="M23.6176 176.751V174.014C23.6176 172.934 23.8912 171.883 24.3982 170.952H22.0547C22.0331 171.096 22.0211 171.245 22.0211 171.394V178.309H23.971C23.7439 177.835 23.6176 177.306 23.6176 176.751Z" fill="#B9DBC8"/>
<path d="M32.9207 162.442H31.6596V165.17H32.9207V162.442Z" fill="#CBF2D3"/>
<path d="M30.7421 173.332V175.424H29.164V176.992H27.0576V175.424H25.4771V173.332H27.0576V171.763H29.164V173.332H30.7421Z" fill="#52A273"/>
<path d="M30.4099 162.442H28.9688V165.17H30.4099V162.442Z" fill="#CBF2D3"/>
<path d="M27.7202 162.442H26.1205V165.17H27.7202V162.442Z" fill="#CBF2D3"/>
<path d="M24.8748 162.442H23.3015V165.17H24.8748V162.442Z" fill="#CBF2D3"/>
<path d="M34.3591 181.495C32.166 181.141 29.0144 180.665 26.6913 180.319C26.0301 180.221 25.4337 179.946 24.9457 179.548H22.0206V181.597H34.3591V181.495Z" fill="#C5CFCB"/>
<path d="M31.2856 166.41H26.1967H24.7488H24.5788V167.711C24.5788 167.96 24.428 168.181 24.2003 168.281C23.4658 168.603 22.8869 169.106 22.5084 169.712H25.2771C25.3469 169.635 25.419 169.559 25.493 169.485L25.5322 169.446C25.9578 169.02 26.197 168.443 26.197 167.841V167.468C26.197 167.179 26.4142 166.938 26.7007 166.906L31.2856 166.41Z" fill="#C5CFCB"/>
</g>
<g clip-path="url(#clip2_86_13745)">
<path d="M49.6418 174.009V182.514C49.6418 182.783 49.447 183 49.2089 183H39.7878C39.5497 183 39.3565 182.783 39.3565 182.514V174.009C39.3565 172.693 40.0427 171.47 41.1284 170.812V170.092H40.6755C40.4357 170.092 40.2425 169.874 40.2425 169.606V166.487C40.2425 166.219 40.4357 166 40.6755 166H48.2113C48.4511 166 48.6443 166.219 48.6443 166.487V169.605C48.6443 169.873 48.4511 170.092 48.2113 170.092H47.8683V170.812C48.9541 171.47 49.6418 172.693 49.6418 174.009ZM48.7759 182.027V180.417H40.2209V182.027H48.7759ZM48.7759 179.443V174.009C48.7759 173.892 48.7676 173.775 48.7542 173.662H40.2442C40.2292 173.775 40.2209 173.892 40.2209 174.009V179.443H48.7759ZM40.5589 172.688H48.4378C48.1763 172.21 47.7717 171.816 47.2621 171.561C47.1038 171.483 47.0023 171.31 47.0023 171.115V170.092H41.9945V171.115C41.9945 171.31 41.8929 171.483 41.7363 171.561C41.2251 171.814 40.8221 172.21 40.5589 172.688ZM47.7783 169.119V166.974H46.904V169.119H47.7783ZM46.038 169.119V166.974H45.0388V169.119H46.038ZM44.1728 169.119V166.974H43.0637V169.119H44.1728ZM42.1993 169.119V166.974H41.1085V169.119H42.1993Z" fill="#52A273"/>
<path d="M48.7759 180.417H40.2208V182.027H48.7759V180.417Z" fill="#EAEFED"/>
<path d="M48.7759 174.009V179.443H40.2208V174.009C40.2208 173.892 40.2292 173.775 40.2441 173.662H48.7542C48.7676 173.775 48.7759 173.892 48.7759 174.009ZM46.2678 177.176V175.532H45.1737V174.299H43.7132V175.532H42.6173V177.176H43.7131V178.408H45.1737V177.176H46.2678Z" fill="#CBF2D3"/>
<path d="M48.438 172.688H40.5591C40.8222 172.21 41.2252 171.814 41.7365 171.561C41.893 171.483 41.9946 171.31 41.9946 171.115V170.092H47.0024V171.115C47.0024 171.31 47.104 171.483 47.2622 171.561C47.7718 171.816 48.1765 172.21 48.438 172.688Z" fill="#EAEFED"/>
<path d="M41.3278 178.219V176.068C41.3278 175.219 41.5174 174.393 41.869 173.662H40.2441C40.2291 173.775 40.2208 173.892 40.2208 174.009V179.443H41.5728C41.4153 179.071 41.3278 178.655 41.3278 178.219Z" fill="#B9DBC8"/>
<path d="M47.7781 166.974H46.9038V169.119H47.7781V166.974Z" fill="#CBF2D3"/>
<path d="M46.2676 175.532V177.176H45.1734V178.408H43.7129V177.176H42.6171V175.532H43.7129V174.299H45.1734V175.532H46.2676Z" fill="#52A273"/>
<path d="M46.0373 166.974H45.0381V169.119H46.0373V166.974Z" fill="#CBF2D3"/>
<path d="M44.1723 166.974H43.0632V169.119H44.1723V166.974Z" fill="#CBF2D3"/>
<path d="M42.1994 166.974H41.1086V169.119H42.1994V166.974Z" fill="#CBF2D3"/>
<path d="M48.7755 181.946C47.2548 181.669 45.0697 181.295 43.4589 181.022C43.0005 180.945 42.587 180.73 42.2486 180.417H40.2204V182.027H48.7755V181.946Z" fill="#C5CFCB"/>
<path d="M46.6444 170.092H43.116H42.1121H41.9942V171.115C41.9942 171.311 41.8897 171.485 41.7318 171.563C41.2225 171.816 40.8211 172.211 40.5587 172.688H42.4784C42.5268 172.627 42.5768 172.567 42.6281 172.509L42.6552 172.479C42.9504 172.144 43.1162 171.69 43.1162 171.217V170.924C43.1162 170.697 43.2668 170.507 43.4655 170.483L46.6444 170.092Z" fill="#C5CFCB"/>
</g>
<path opacity="0.7" d="M-177.197 324.842H-184.371L-189.752 189.387H129.505V324.842H123.228L118.744 199.251H-177.197V324.842Z" fill="#CAEBE0"/>
<path d="M169.345 323.244L157.555 263.804H146.748L161.485 323.244H169.345Z" fill="#A5A7A6"/>
<path d="M65.6939 324.227L75.4809 264.786H88.291L73.5537 324.227H65.6939Z" fill="#A5A7A6"/>
<path d="M151.17 254.471L72.0801 258.892L75.5188 266.752L158.539 264.296V254.471L163.942 212.224L168.855 209.276L176.223 195.522V166.538L165.907 165.065L158.539 214.68L151.17 254.471Z" fill="#939494"/>
<path d="M139.379 152.292H132.01L123.168 159.169L112.852 179.802L109.904 222.54H141.344C142.326 222.54 142.818 211.732 142.818 210.75C142.818 209.964 145.765 180.62 147.239 166.047L139.379 152.292Z" fill="#37AD6F"/>
<path d="M133.487 146.396L132.014 139.519L143.312 131.168L146.751 143.94L144.295 152.783H132.505L133.487 146.396Z" fill="#FFA372"/>
<path d="M133.482 145.905V149.951L131.755 158.042L116.78 175.38L133.482 145.905Z" fill="#CFCCCA"/>
<path d="M147.923 140.993L150.186 144.394L131.518 170.468L134.912 150.062L147.923 140.993Z" fill="#E9E4E1"/>
<path d="M51.9206 226.47H124.643C122.161 231.833 116.855 242.445 115.481 241.986C114.106 241.526 83.2235 244.859 67.9538 246.583L43.3314 317.841L31.3065 314.967L43.3314 233.366L46.7671 227.619L51.9206 226.47Z" fill="#212B35"/>
<path d="M114.818 227.943L126.26 221.557L155.1 226.723L153.369 254.277L74.3501 259.443C74.3501 259.443 77.6743 271.769 74.3501 278.386C63.968 299.051 49.5485 323.735 49.5485 323.735L39.1664 319.717L60.5073 243.37L63.968 240.5L114.818 227.943Z" fill="#2E3C4A"/>
<path d="M120.321 155.037L131.521 149.345L120.321 169.977L107.265 206.473L103.859 208.785L101.021 207.629L79.4498 183.934L89.1 177.577L103.859 190.291L120.321 155.037Z" fill="#EFEDEC"/>
<path d="M105.975 204.855L108.922 203.872L111.87 200.925C112.525 198.305 114.227 192.082 115.799 188.153C117.371 184.223 115.144 179.638 113.834 177.836L105.975 189.135L106.957 196.504L105.975 204.855Z" fill="#E9E5E3"/>
<path d="M116.783 225.167V178.328L107.941 192.608V227.452L112.362 226.31L116.783 225.167Z" fill="#EFEDEC"/>
<rect width="23.7196" height="23.7196" rx="11.8598" transform="matrix(-0.557499 -0.830178 -0.830178 0.557499 163.451 102.718)" fill="#562817"/>
<rect width="23.7196" height="23.7196" rx="11.8598" transform="matrix(-0.905781 -0.423746 -0.423746 0.905781 158.143 100.938)" fill="#00AD6F"/>
<path d="M145.94 115.977C144.297 117.061 151.236 137.066 137.285 141.298C126.224 142.829 119.729 134.116 115.688 121.498C115.969 108.774 122.952 100.513 134.013 98.9816C145.073 97.4507 144.159 103.111 145.94 115.977Z" fill="#FFA372"/>
<path d="M138.891 131.169C137.867 135.739 132.014 140.994 132.014 140.994C134.306 140.339 136.76 140.441 139.382 139.029C144.213 136.427 147.733 128.221 147.733 127.73C147.733 127.337 145.113 121.016 143.803 117.905L133.979 115.94C133.979 115.94 140.257 125.071 138.891 131.169Z" fill="#EC8B56"/>
<path fill-rule="evenodd" clip-rule="evenodd" d="M134.163 118.368C134.163 118.368 131.153 118.291 129.335 118.822C127.434 119.378 124.643 120.852 124.643 120.852L125.135 121.344C125.135 121.344 127.852 120.081 129.653 119.539C131.496 118.984 134.468 119.379 134.468 119.379L134.163 118.368Z" fill="#263238"/>
<path fill-rule="evenodd" clip-rule="evenodd" d="M116.785 125.274C116.785 125.274 116.972 123.869 117.767 123.8C118.752 123.715 120.224 122.99 120.224 122.99L120.224 122.326C120.224 122.326 118.826 122.842 117.853 122.99C117.017 123.117 116.294 124.291 116.294 124.291L116.785 125.274Z" fill="#263238"/>
<path fill-rule="evenodd" clip-rule="evenodd" d="M117.766 130.186C117.766 130.186 117.601 123.587 118.257 121.344C118.834 119.369 116.246 116.743 117.274 114.958C118.583 112.685 117.765 112.502 117.765 112.502L119.239 112.01C119.239 112.01 120.115 113.002 119.239 114.467C118.114 116.349 119.73 118.397 119.73 118.397L121.204 122.326C121.204 122.326 120.419 115.313 121.695 113.484C123.411 111.026 123.169 110.045 123.169 110.045C123.169 110.045 124.243 108.623 126.608 110.045C129.732 111.924 129.026 110.99 129.214 114.645C129.497 120.145 137.88 120.037 138.077 125.542C138.166 128.038 136.557 131.769 136.557 131.769L138.351 131.335C138.351 131.335 138.605 129.028 140.353 127.629L143.425 123.517C143.425 123.517 145.294 124.432 145.909 125.516C147.212 127.811 144.258 129.328 143.457 131.86C143.052 133.137 142.525 135.161 142.525 135.161L143.537 136.688C144.883 135.796 147.386 133.592 147.386 133.592C147.386 133.592 149.571 134.413 150.894 134.004C153.724 133.13 152.622 126.618 152.622 126.618C157.205 117.854 156.278 107.59 149.64 101.505C141.468 94.013 127.737 95.6912 118.97 105.253C106.958 115.449 118.865 124.476 117.766 130.186Z" fill="#562817"/>
<ellipse cx="1.59339" cy="1.99174" rx="1.59339" ry="1.99174" transform="matrix(-0.921663 0.387991 0.387991 0.921663 129.967 121.838)" fill="#263238"/>
<ellipse cx="1.09437" cy="1.71241" rx="1.09437" ry="1.71241" transform="matrix(-0.954447 0.298382 0.298382 0.954447 120.682 125.588)" fill="#263238"/>
<path d="M132.535 131.088L124.231 134.529C124.091 134.587 124.042 134.757 124.135 134.875C124.667 135.555 126.316 137.486 127.865 137.457C128.908 137.437 129.499 137.1 130.366 136.52C131.986 135.437 132.652 132.423 132.845 131.333C132.876 131.155 132.701 131.019 132.535 131.088Z" fill="white" stroke="#A81849" stroke-width="0.46861"/>
<path d="M125.625 136.074L130.859 134.051" stroke="#E2E2E2" stroke-width="0.46861"/>
<path d="M81.5804 175.681L85.3431 179.792V180.203L82.4165 182.258L79.49 179.792L76.9815 179.381C75.4485 178.695 72.3826 177.243 72.3826 176.914C72.3826 176.585 68.7593 172.941 66.9476 171.16L65.6934 165.816C65.6934 165.816 65.9523 164.696 66.5295 164.583C67.1068 164.469 67.7838 165.405 67.7838 165.405L68.6199 169.104L70.2922 171.16L69.8741 169.104L71.5465 166.227L74.0549 165.816C74.0549 165.816 74.9101 166.471 74.8911 167.049C74.8688 167.73 72.8007 167.871 72.8007 167.871L71.5465 170.749L74.473 172.804V170.748L76.1453 169.104L78.6538 168.693C78.6538 168.693 79.49 169.061 79.49 169.515C79.49 169.969 78.6538 170.337 78.6538 170.337L76.9815 170.748L76.1453 171.982C76.6242 173.215 77.6291 175.681 77.8176 175.681H81.5804Z" fill="#FFA372"/>
<path d="M55.8735 154.695L70.9352 147.974C71.4376 147.75 72.0259 147.853 72.4216 148.236L95.6541 170.671C96.2966 171.292 96.1694 172.354 95.3985 172.805L80.4293 181.566C79.8895 181.882 79.2033 181.786 78.7718 181.333L55.4468 156.857C54.8039 156.183 55.0226 155.075 55.8735 154.695Z" fill="#FDFFFF"/>
<path d="M68.5957 156.516L67.705 156.597L67.7863 157.488L66.4096 157.165L66.0456 158.096L64.2235 157.814L64.3455 159.15L62.9688 158.826L62.6048 159.758" stroke="#2B592D" stroke-width="0.447213"/>
<path d="M89.2168 166.825L88.3261 166.907L88.4075 167.798L87.0307 167.474L86.6667 168.406L84.8446 168.123L84.9667 169.459L83.5899 169.136L83.2259 170.067" stroke="#2B592D" stroke-width="0.447213"/>
<path d="M78.627 156.691L77.7362 156.772L77.8176 157.663L76.4408 157.34L76.0769 158.271L74.2547 157.988L74.3768 159.324L73 159.001L72.6361 159.932L71.7453 160.014L71.3814 160.945L69.1546 161.149L69.1953 161.594L67.8999 162.161L67.9406 162.607L66.3548 162.752" stroke="#2B592D" stroke-width="0.447213"/>
<path d="M81.541 159.119L80.6503 159.2L80.7317 160.091L79.3549 159.768L78.9909 160.699L77.1688 160.417L77.2909 161.753L75.9141 161.429L75.5501 162.361L74.6594 162.442L74.2954 163.373L72.0686 163.577L72.1093 164.022L70.8139 164.59L70.8546 165.035L69.2689 165.18" stroke="#2B592D" stroke-width="0.447213"/>
<path d="M84.5371 162.437L83.6464 162.519L83.7278 163.41L82.351 163.086L81.987 164.018L80.1649 163.735L80.287 165.071L78.9102 164.748L78.5462 165.679L77.6555 165.761L77.2915 166.692L75.0647 166.895L75.1054 167.341L73.81 167.908L73.8507 168.354L72.265 168.498" stroke="#2B592D" stroke-width="0.447213"/>
<path d="M72.6717 147.776C72.1319 147.329 71.3802 147.222 70.7324 147.511L55.6711 154.232L55.5634 154.284C54.5179 154.83 54.2454 156.213 55.0048 157.116L55.0844 157.204L78.4094 181.68C78.9657 182.264 79.8297 182.417 80.547 182.076L80.6883 182.001L95.6572 173.24C96.7171 172.62 96.8921 171.159 96.0087 170.306L72.7761 147.87L72.6717 147.776ZM71.1448 148.434C71.4195 148.312 71.7352 148.346 71.9755 148.516L72.0736 148.598L95.3061 171.033C95.7077 171.421 95.6281 172.085 95.1463 172.367L80.1775 181.129L80.1131 181.162C79.787 181.317 79.394 181.248 79.1412 180.983L55.8161 156.507L55.7471 156.425C55.4539 156.029 55.5665 155.46 55.9882 155.206L56.0828 155.156L71.1448 148.434Z" fill="#255D29"/>
<path d="M66.8868 150.079L60.9408 152.572L62.4359 154.71L68.0596 152.246L66.8868 150.079Z" fill="#2B592D"/>
<path d="M126.607 176.915L149.688 142.958L162.959 153.893C162.959 153.893 161.629 191.584 158.343 215.476C157.009 225.177 155.211 230.474 154.304 240.224C151.583 269.458 162.959 314.906 162.959 314.906C162.959 314.906 158.355 309.188 149.688 305.533C142.605 302.547 136.868 305.533 136.868 305.533C136.868 305.533 141.554 272.262 136.868 246.489C135.258 237.634 130.069 215.476 130.069 215.476L126.607 176.915Z" fill="#F5F1EF"/>
<path d="M117.766 218.118C119.649 217.523 121.695 214.68 121.695 214.68L128.082 213.697L132.012 221.557L122.187 223.522C122.187 223.522 120.889 224.731 119.731 225.487C118.124 226.535 115.309 226.469 115.309 226.469H106.467L106.958 221.557C106.958 221.557 110.133 218.761 111.871 217.627C114.281 216.055 115.745 218.757 117.766 218.118Z" fill="#FABF8C"/>
<path d="M145.766 200.433C144.558 205.288 138.725 205.182 134.959 207.311L137.415 208.784L154.609 204.854L158.047 168.011L149.696 162.116C149.696 162.116 149.405 169.94 145.766 170.959C143.701 171.537 140.363 169.976 140.363 169.976C140.363 169.976 147.501 177.922 145.766 183.24C144.753 186.345 140.363 189.626 140.363 189.626C142 193.064 146.906 195.854 145.766 200.433Z" fill="#E9E4E1"/>
<path d="M164.588 209.585L166.889 156.219L160.562 151.801L151.361 167.696L149.635 203.273L119.729 212.454L122.03 224.505L163.438 214.176L164.588 209.585Z" fill="#F5F1EF"/>
<path d="M166.398 156.713C166.398 156.713 163.237 154.637 160.995 154.748C158.333 154.88 155.1 158.187 155.1 158.187" stroke="#E9E4E1" stroke-width="0.93722"/>
</g>
<path d="M28.3959 321.187L34.1187 312.4L43.6187 311.349L38.328 322.846C36.7939 323.862 33.6267 325.911 33.2297 325.975C32.8327 326.038 28.1929 325.234 25.9227 324.823L28.3959 321.187Z" fill="#FABF8C"/>
<path d="M41.5324 329.541L39.7961 324.551C39.7961 324.551 42.2069 322.898 42.191 321.43C42.1786 320.292 40.7034 318.892 40.7034 318.892C40.7034 318.892 37.1119 322.031 34.4489 321.724C32.7926 321.534 30.6978 319.918 30.6978 319.918L32.7838 316.432L30.2828 315.736C30.2828 315.736 28.2356 318.145 26.5292 319.265C24.2384 320.77 22.5185 320.913 19.858 321.728C14.1758 323.468 4.84903 324.41 4.84903 324.41C4.84903 324.41 3.28288 325.139 3.1808 325.979C3.0532 327.028 5.26439 327.83 5.26439 327.83C5.26439 327.83 11.3725 330.791 15.6851 330.985C20.3328 331.194 22.907 329.775 27.3589 328.39C28.3422 328.085 34.4597 325.177 34.4597 325.177L37.4736 330.678L41.5324 329.541Z" fill="#252B41"/>
<path d="M34.8036 327.149L40.3385 317.854L49.639 316.928L44.5499 329.136C43.0552 330.193 39.9685 332.322 39.58 332.382C39.1915 332.441 34.6383 331.482 32.4102 330.994L34.8036 327.149Z" fill="#FABF8C"/>
<path d="M47.7461 336.379L46.0032 330.995C46.0032 330.995 48.3519 329.275 48.3241 327.701C48.3025 326.481 46.8454 324.949 46.8454 324.949C46.8454 324.949 43.352 328.238 40.74 327.853C39.1153 327.614 37.0492 325.838 37.0492 325.838L39.0643 322.147L36.6078 321.348C36.6078 321.348 34.6217 323.886 32.9589 325.051C30.7266 326.615 29.0424 326.732 26.4421 327.549C20.8885 329.294 11.7568 330.108 11.7568 330.108C11.7568 330.108 10.2282 330.856 10.1351 331.753C10.0188 332.875 12.1922 333.781 12.1922 333.781C12.1922 333.781 18.2022 337.083 22.4298 337.382C26.9859 337.704 29.4966 336.237 33.8477 334.847C34.8086 334.54 40.7792 331.554 40.7792 331.554L43.7781 337.511L47.7461 336.379Z" fill="#252B41"/>
<path d="M169.479 323.244L157.689 263.804H146.882L161.619 323.244H169.479Z" fill="#A5A7A6"/>
<path d="M65.8265 324.226L75.6136 264.786H88.4237L73.6864 324.226H65.8265Z" fill="#A5A7A6"/>
<path d="M151.303 254.47L72.2127 258.891L75.6514 266.751L158.671 264.295V254.47L166.04 214.679L168.987 209.276C168.987 209.276 171.356 203.5 171.356 195.521V166.538L166.04 165.064L158.671 214.679L151.303 254.47Z" fill="#939494"/>
<path d="M139.513 152.292H132.144L123.302 159.169L112.985 179.801L110.038 222.539H141.478C142.46 222.539 142.951 211.732 142.951 210.749C142.951 209.963 145.899 180.62 147.372 166.046L139.513 152.292Z" fill="#37AD6F"/>
<path d="M133.618 146.397L132.144 139.519L143.443 131.168L146.882 143.941L144.426 152.783H132.636L133.618 146.397Z" fill="#FFA372"/>
<path d="M133.618 145.905V149.951L131.89 158.042L116.916 175.38L133.618 145.905Z" fill="#CFCCCA"/>
<path d="M148.058 140.993L150.32 144.394L131.653 170.468L135.047 150.062L148.058 140.993Z" fill="#E9E4E1"/>
<path d="M52.0533 226.469H124.775C122.294 231.833 116.988 242.445 115.613 241.985C114.239 241.525 83.3562 244.858 68.0865 246.582L43.4641 317.84L31.4392 314.967L43.4641 233.365L46.8998 227.619L52.0533 226.469Z" fill="#212B35"/>
<path d="M114.95 227.943L126.393 221.557L155.232 226.723L153.502 254.277L74.4828 259.443C74.4828 259.443 77.807 271.77 74.4828 278.386C64.1007 299.052 49.6812 323.735 49.6812 323.735L39.2991 319.717L60.64 243.37L64.1007 240.5L114.95 227.943Z" fill="#2E3C4A"/>
<path d="M120.453 155.037L131.653 149.344L120.453 169.976L107.397 206.473L103.991 208.784L101.153 207.629L79.5815 183.933L89.2317 177.576L103.991 190.291L120.453 155.037Z" fill="#EFEDEC"/>
<path d="M106.108 204.855L109.056 203.872L112.003 200.925C112.658 198.305 114.361 192.082 115.933 188.152C117.505 184.222 115.278 179.637 113.968 177.836L106.108 189.135L107.091 196.503L106.108 204.855Z" fill="#E9E5E3"/>
<path d="M116.916 225.167V178.327L108.074 192.608V227.452L112.495 226.309L116.916 225.167Z" fill="#EFEDEC"/>
<rect width="23.7196" height="23.7196" rx="11.8598" transform="matrix(-0.557499 -0.830178 -0.830178 0.557499 163.586 102.718)" fill="#562817"/>
<rect width="23.7196" height="23.7196" rx="11.8598" transform="matrix(-0.905781 -0.423746 -0.423746 0.905781 158.276 100.938)" fill="#00AD6F"/>
<path d="M146.075 115.977C144.432 117.06 151.37 137.065 137.419 141.298C126.359 142.829 119.864 134.115 115.823 121.498C116.103 108.774 123.087 100.512 134.147 98.9813C145.208 97.4504 144.294 103.11 146.075 115.977Z" fill="#FFA372"/>
<path d="M139.022 131.168C137.998 135.738 132.144 140.993 132.144 140.993C134.437 140.338 136.891 140.44 139.513 139.028C144.344 136.426 147.864 128.221 147.864 127.729C147.864 127.336 145.244 121.016 143.934 117.905L134.109 115.94C134.109 115.94 140.388 125.07 139.022 131.168Z" fill="#EC8B56"/>
<path fill-rule="evenodd" clip-rule="evenodd" d="M134.296 118.368C134.296 118.368 131.286 118.291 129.468 118.822C127.566 119.378 124.776 120.852 124.776 120.852L125.267 121.343C125.267 121.343 127.985 120.081 129.785 119.539C131.629 118.984 134.601 119.378 134.601 119.378L134.296 118.368Z" fill="#263238"/>
<path fill-rule="evenodd" clip-rule="evenodd" d="M116.916 125.273C116.916 125.273 117.103 123.868 117.898 123.8C118.883 123.714 120.354 122.99 120.354 122.99L120.354 122.326C120.354 122.326 118.957 122.842 117.984 122.99C117.148 123.117 116.425 124.291 116.425 124.291L116.916 125.273Z" fill="#263238"/>
<path fill-rule="evenodd" clip-rule="evenodd" d="M117.898 130.186C117.898 130.186 117.734 123.587 118.389 121.344C118.967 119.368 116.378 116.743 117.407 114.957C118.716 112.685 117.898 112.501 117.898 112.501L119.372 112.01C119.372 112.01 120.247 113.001 119.372 114.466C118.247 116.348 119.863 118.396 119.863 118.396L121.337 122.326C121.337 122.326 120.551 115.312 121.828 113.484C123.544 111.026 123.302 110.045 123.302 110.045C123.302 110.045 124.376 108.623 126.74 110.045C129.864 111.923 129.159 110.99 129.347 114.644C129.629 120.144 138.013 120.037 138.21 125.541C138.299 128.037 136.69 131.768 136.69 131.768L138.484 131.335C138.484 131.335 138.738 129.027 140.486 127.628L143.557 123.516C143.557 123.516 145.427 124.431 146.042 125.515C147.344 127.81 144.391 129.328 143.59 131.859C143.185 133.137 142.657 135.161 142.657 135.161L143.67 136.688C145.015 135.796 147.519 133.591 147.519 133.591C147.519 133.591 149.704 134.412 151.026 134.004C153.856 133.129 152.754 126.617 152.754 126.617C157.338 117.854 156.41 107.59 149.773 101.504C141.601 94.0126 127.87 95.6908 119.103 105.253C107.091 115.449 118.997 124.476 117.898 130.186Z" fill="#562817"/>
<ellipse cx="1.59339" cy="1.99174" rx="1.59339" ry="1.99174" transform="matrix(-0.921663 0.387991 0.387991 0.921663 130.098 121.838)" fill="#263238"/>
<ellipse cx="1.09437" cy="1.71241" rx="1.09437" ry="1.71241" transform="matrix(-0.954447 0.298382 0.298382 0.954447 120.815 125.587)" fill="#263238"/>
<path d="M132.668 131.095L124.364 134.536C124.225 134.594 124.176 134.763 124.269 134.882C124.801 135.562 126.45 137.493 127.999 137.464C129.042 137.444 129.633 137.107 130.5 136.527C132.12 135.443 132.786 132.429 132.979 131.34C133.01 131.162 132.835 131.026 132.668 131.095Z" fill="white" stroke="#A81849" stroke-width="0.46861"/>
<path d="M125.759 136.08L130.992 134.058" stroke="#E2E2E2" stroke-width="0.46861"/>
<path d="M81.714 175.681L85.4767 179.791V180.202L82.5501 182.257L79.6236 179.791L77.1151 179.38C75.5821 178.695 72.5162 177.243 72.5162 176.914C72.5162 176.585 68.8929 172.94 67.0812 171.159L65.827 165.815C65.827 165.815 66.0859 164.696 66.6631 164.582C67.2404 164.469 67.9174 165.404 67.9174 165.404L68.7535 169.104L70.4258 171.159L70.0078 169.104L71.6801 166.226L74.1885 165.815C74.1885 165.815 75.0437 166.47 75.0247 167.049C75.0024 167.729 72.9343 167.871 72.9343 167.871L71.6801 170.748L74.6066 172.803V170.748L76.2789 169.104L78.7874 168.693C78.7874 168.693 79.6236 169.061 79.6236 169.515C79.6236 169.969 78.7874 170.337 78.7874 170.337L77.1151 170.748L76.2789 171.981C76.7578 173.214 77.7627 175.681 77.9512 175.681H81.714Z" fill="#FFA372"/>
<path d="M56.0062 154.695L71.068 147.974C71.5704 147.749 72.1586 147.853 72.5544 148.235L95.7869 170.671C96.4294 171.291 96.3021 172.353 95.5313 172.805L80.562 181.566C80.0222 181.882 79.336 181.785 78.9045 181.332L55.5795 156.857C54.9367 156.182 55.1553 155.074 56.0062 154.695Z" fill="#FDFFFF"/>
<path d="M68.7274 156.516L67.8367 156.597L67.9181 157.488L66.5413 157.164L66.1773 158.096L64.3552 157.813L64.4773 159.149L63.1005 158.826L62.7365 159.757" stroke="#2B592D" stroke-width="0.447213"/>
<path d="M89.3466 166.825L88.4559 166.906L88.5372 167.797L87.1605 167.474L86.7965 168.405L84.9744 168.123L85.0964 169.459L83.7197 169.135L83.3557 170.067" stroke="#2B592D" stroke-width="0.447213"/>
<path d="M78.7559 156.69L77.8651 156.772L77.9465 157.662L76.5698 157.339L76.2058 158.27L74.3837 157.988L74.5057 159.324L73.129 159.001L72.765 159.932L71.8743 160.013L71.5103 160.945L69.2835 161.148L69.3242 161.594L68.0288 162.161L68.0695 162.606L66.4837 162.751" stroke="#2B592D" stroke-width="0.447213"/>
<path d="M81.6709 159.118L80.7802 159.2L80.8616 160.09L79.4848 159.767L79.1208 160.698L77.2987 160.416L77.4208 161.752L76.044 161.429L75.68 162.36L74.7893 162.441L74.4253 163.373L72.1985 163.576L72.2392 164.022L70.9438 164.589L70.9845 165.034L69.3988 165.179" stroke="#2B592D" stroke-width="0.447213"/>
<path d="M84.6689 162.437L83.7781 162.518L83.8595 163.409L82.4827 163.086L82.1188 164.017L80.2966 163.735L80.4187 165.071L79.0419 164.747L78.678 165.679L77.7872 165.76L77.4233 166.692L75.1965 166.895L75.2372 167.34L73.9418 167.908L73.9825 168.353L72.3967 168.498" stroke="#2B592D" stroke-width="0.447213"/>
<path d="M72.8034 147.776C72.2636 147.328 71.5119 147.221 70.8642 147.51L55.8028 154.232L55.6951 154.283C54.6496 154.83 54.3772 156.212 55.1366 157.115L55.2161 157.204L78.5412 181.68C79.0975 182.264 79.9614 182.417 80.6788 182.076L80.82 182.001L95.7889 173.24C96.8489 172.619 97.0239 171.159 96.1404 170.306L72.9078 147.87L72.8034 147.776ZM71.2765 148.434C71.5512 148.311 71.8669 148.346 72.1073 148.516L72.2053 148.598L95.4379 171.033C95.8394 171.421 95.7598 172.085 95.278 172.367L80.3092 181.128L80.2448 181.162C79.9187 181.317 79.5258 181.248 79.2729 180.982L55.9478 156.506L55.8789 156.425C55.5856 156.029 55.6982 155.46 56.1199 155.205L56.2146 155.155L71.2765 148.434Z" fill="#255D29"/>
<path d="M67.0157 150.079L61.0697 152.571L62.5648 154.709L68.1885 152.246L67.0157 150.079Z" fill="#2B592D"/>
<path d="M126.741 176.915L149.821 142.958L163.093 153.893C163.093 153.893 161.763 191.584 158.477 215.476C157.142 225.177 155.345 230.474 154.438 240.224C151.717 269.458 163.093 314.906 163.093 314.906C163.093 314.906 158.489 309.188 149.821 305.533C142.738 302.547 137.002 305.533 137.002 305.533C137.002 305.533 141.688 272.262 137.002 246.489C135.392 237.634 130.203 215.476 130.203 215.476L126.741 176.915Z" fill="#F5F1EF"/>
<path d="M117.898 218.118C119.781 217.523 121.828 214.679 121.828 214.679L128.214 213.697L132.144 221.557L122.319 223.522C122.319 223.522 121.022 224.731 119.863 225.487C118.256 226.535 115.442 226.469 115.442 226.469H106.6L107.091 221.557C107.091 221.557 110.265 218.76 112.003 217.627C114.414 216.055 115.878 218.757 117.898 218.118Z" fill="#FABF8C"/>
<path d="M145.899 200.433C144.691 205.288 138.858 205.182 135.092 207.311L137.548 208.785L154.741 204.855L158.18 168.011L149.829 162.117C149.829 162.117 149.538 169.941 145.899 170.959C143.833 171.537 140.495 169.976 140.495 169.976C140.495 169.976 147.634 177.923 145.899 183.24C144.886 186.346 140.495 189.626 140.495 189.626C142.133 193.065 147.038 195.854 145.899 200.433Z" fill="#E9E4E1"/>
<path d="M164.723 209.585L167.023 156.219L160.697 151.8L151.495 167.695L149.77 203.273L119.864 212.454L122.165 224.504C122.165 224.504 154.881 221 163.573 214.175C165.026 213.034 164.723 209.585 164.723 209.585Z" fill="#F5F1EF"/>
<path d="M166.531 156.713C166.531 156.713 163.37 154.637 161.127 154.748C158.465 154.88 155.232 158.187 155.232 158.187" stroke="#E9E4E1" stroke-width="0.93722"/>
<path d="M190.427 19.0128L190.878 18.1202L190.427 19.0128ZM199.167 79.9782C199.7 80.1221 200.249 79.8066 200.393 79.2734L202.738 70.5843C202.882 70.0511 202.567 69.5022 202.034 69.3583C201.5 69.2144 200.951 69.5299 200.808 70.0631L198.723 77.7867L190.999 75.702C190.466 75.5581 189.917 75.8737 189.773 76.4069C189.629 76.9401 189.945 77.489 190.478 77.633L199.167 79.9782ZM190.427 19.0128L189.976 19.9054C193.092 21.4791 195.56 22.5434 197.462 23.1785C199.315 23.7969 200.788 24.0645 201.83 23.8651C202.385 23.7587 202.928 23.4971 203.273 22.9751C203.61 22.4636 203.639 21.8795 203.556 21.3737C203.396 20.4036 202.753 19.2821 201.917 18.1584C200.204 15.8536 197.27 13.0039 193.892 10.3591C190.508 7.71037 186.612 5.2154 182.944 3.6551C181.11 2.87486 179.302 2.31467 177.622 2.09848C175.947 1.88279 174.334 2.00163 172.95 2.65424C170.058 4.01823 168.749 7.36825 169.181 12.6952C169.616 18.0574 171.823 25.8072 176.465 36.6533C181.115 47.5173 188.237 61.5542 198.561 79.5112L199.428 79.0128L200.295 78.5144C189.993 60.5964 182.912 46.6333 178.304 35.8664C173.688 25.0816 171.583 17.5697 171.174 12.5335C170.763 7.462 172.078 5.27687 173.803 4.46313C174.728 4.02687 175.922 3.8962 177.367 4.08212C178.807 4.26755 180.433 4.76009 182.161 5.49547C185.619 6.96643 189.363 9.35427 192.659 11.934C195.96 14.5177 198.744 17.2423 200.312 19.3515C201.118 20.4349 201.505 21.2304 201.583 21.699C201.618 21.9125 201.567 21.9282 201.603 21.8734C201.646 21.8081 201.666 21.8601 201.454 21.9007C200.96 21.9952 199.92 21.8903 198.096 21.2814C196.321 20.6891 193.949 19.6715 190.878 18.1202L190.427 19.0128ZM119 34L119.954 34.2994C122.337 26.7067 127.375 16.8717 137.907 12.019C148.419 7.17524 164.723 7.15155 189.976 19.9054L190.427 19.0128L190.878 18.1202C165.361 5.23305 148.37 4.99594 137.07 10.2025C125.79 15.4001 120.5 25.8793 118.046 33.7006L119 34Z" fill="#B2EAC8"/>
<defs>
<clipPath id="clip0_86_13745">
<rect x="2.38086" width="160" height="405" rx="80" fill="white"/>
</clipPath>
<clipPath id="clip1_86_13745">
<rect width="21.6339" height="21.6339" fill="white" transform="translate(17.373 161.202)"/>
</clipPath>
<clipPath id="clip2_86_13745">
<rect width="15" height="17" fill="white" transform="translate(36.998 166)"/>
</clipPath>
</defs>
</svg>
