<svg width="28" height="24" viewBox="0 0 28 24" fill="none" xmlns="http://www.w3.org/2000/svg">
<rect width="28" height="24" fill="#F5F5F5"/>
<g clip-path="url(#clip0_83_1573)">
<rect width="1920" height="3522" transform="translate(-300 -22)" fill="white"/>
<rect x="-305" y="-22" width="1920" height="922" fill="#FCFEF6"/>
<mask id="path-2-inside-1_83_1573" fill="white">
<path d="M-300 -22H1620V46H-300V-22Z"/>
</mask>
<path d="M1620 46V45H-300V46V47H1620V46Z" fill="#E5E5E5" mask="url(#path-2-inside-1_83_1573)"/>
<path fill-rule="evenodd" clip-rule="evenodd" d="M13.6873 1.31712C10.9903 1.31712 7.64666 -0.896986 4.27135 0.416585C1.47279 1.5068 -0.543384 4.86488 0.130704 10.1192C0.968446 16.6397 7.77868 24 8.47406 24L13.6873 17.2289L25.3883 2.03506C24.7349 1.29053 23.9562 0.748079 23.1044 0.416585C22.3324 0.116407 21.5616 0 20.8005 0C18.2331 0 15.7686 1.31712 13.6873 1.31712Z" fill="url(#paint0_linear_83_1573)"/>
<path fill-rule="evenodd" clip-rule="evenodd" d="M27.6904 10.1195C26.8527 16.6395 20.043 23.9997 19.3477 23.9997L14.1332 17.2286L2.4328 2.03479C3.0862 1.29026 3.86493 0.7484 4.71606 0.416314C8.09197 -0.897257 11.4356 1.31744 14.1332 1.31744C16.8308 1.31744 20.1744 -0.897257 23.5497 0.416314C26.3483 1.50652 28.3645 4.86461 27.6904 10.1195Z" fill="#00AD6F"/>
</g>
<defs>
<linearGradient id="paint0_linear_83_1573" x1="1762.35" y1="1435.34" x2="673.186" y2="-143.047" gradientUnits="userSpaceOnUse">
<stop stop-color="#00AC6E"/>
<stop offset="1" stop-color="#177966"/>
</linearGradient>
<clipPath id="clip0_83_1573">
<rect width="1920" height="3522" fill="white" transform="translate(-300 -22)"/>
</clipPath>
</defs>
</svg>
