<svg width="201" height="24" viewBox="0 0 201 24" fill="none" xmlns="http://www.w3.org/2000/svg">
<path fill-rule="evenodd" clip-rule="evenodd" d="M13.6873 1.31712C10.9903 1.31712 7.64666 -0.896986 4.27135 0.416585C1.47279 1.5068 -0.543384 4.86488 0.130704 10.1192C0.968446 16.6397 7.77868 24 8.47406 24L13.6873 17.2289L25.3883 2.03506C24.7349 1.29053 23.9562 0.748079 23.1044 0.416585C22.3324 0.116407 21.5616 0 20.8005 0C18.2331 0 15.7686 1.31712 13.6873 1.31712Z" fill="url(#paint0_linear_467_304)"/>
<path fill-rule="evenodd" clip-rule="evenodd" d="M27.6904 10.1195C26.8527 16.6395 20.043 23.9997 19.3477 23.9997L14.1332 17.2286L2.4328 2.03479C3.0862 1.29026 3.86493 0.7484 4.71606 0.416314C8.09197 -0.897257 11.4356 1.31744 14.1332 1.31744C16.8308 1.31744 20.1744 -0.897257 23.5497 0.416314C26.3483 1.50652 28.3645 4.86461 27.6904 10.1195Z" fill="#00AD6F"/>
<path fill-rule="evenodd" clip-rule="evenodd" d="M40.7675 16.1294C43.1027 16.1294 44.3297 14.5627 44.3297 12.0949C44.3297 9.68905 43.1345 8.29021 40.8622 8.29021H38.8034V16.1294H40.7675ZM33.8209 3.96796H41.0873C46.6828 3.96796 49.608 7.1932 49.608 12.0141C49.6444 16.8699 46.5478 20.5015 40.8507 20.4516H33.8209V3.96796Z" fill="#061F19"/>
<path fill-rule="evenodd" clip-rule="evenodd" d="M112.447 18.1492C113.362 18.1492 114.009 17.6355 114.009 16.9303C114.009 16.2255 113.377 15.7123 112.447 15.7123C111.516 15.7123 110.908 16.2062 110.908 16.9419C110.908 17.6776 111.5 18.1492 112.447 18.1492ZM112.222 8.32106C116.407 8.32106 118.66 10.5896 118.66 14.1031V20.6431H113.902V19.356C113.224 20.3978 111.973 21 110.506 21C108.196 21 106.529 19.4087 106.529 17.2524C106.529 14.8683 108.337 13.4593 110.896 13.4593C112.206 13.4593 113.208 13.8192 113.902 14.5394C113.887 12.9152 112.896 12.0798 111.003 12.0798C109.488 12.0798 108.127 12.5703 107.18 13.2755V9.58543C108.506 8.81926 110.328 8.32106 112.222 8.32106Z" fill="#061F19"/>
<path fill-rule="evenodd" clip-rule="evenodd" d="M57.2515 11.6895C56.0523 11.6895 55.3068 12.3599 55.1803 13.4936H59.2281C59.1648 12.3139 58.4661 11.6895 57.2515 11.6895ZM63.2519 15.8961H55.251C55.8038 16.908 57.0702 17.4942 59.0737 17.4942C60.4073 17.4942 61.6145 17.1915 62.6956 16.5864V19.7129C61.6538 20.4636 59.9143 21 57.7371 21C53.139 21 50.2571 18.5105 50.2571 14.5858C50.2167 10.903 53.008 8.28042 57.0857 8.32154C61.0941 8.32154 63.2519 10.4174 63.2519 14.3565V15.8961Z" fill="#061F19"/>
<path fill-rule="evenodd" clip-rule="evenodd" d="M89.7286 20.4719H94.5931V8.50632H89.7286V20.4719ZM92.1663 7.57522C90.6783 7.57522 89.5986 6.6654 89.5986 5.26463C89.5986 3.9311 90.6245 2.99999 92.1663 2.99999C93.6977 2.99999 94.7106 3.9311 94.7106 5.26463C94.7106 6.6654 93.618 7.57522 92.1663 7.57522Z" fill="#061F19"/>
<path fill-rule="evenodd" clip-rule="evenodd" d="M72.7806 8.32106C75.4847 8.32106 77.1002 10.1102 77.1002 13.1144V20.6436H72.2363V14.1834C72.2363 12.8808 71.7273 12.2293 70.7094 12.2293C69.6208 12.2293 69.0645 13.0225 69.0645 14.2637V20.6436H64.2005V8.67754H68.9699V10.3671C69.6163 9.14092 70.9345 8.32106 72.7806 8.32106Z" fill="#061F19"/>
<path fill-rule="evenodd" clip-rule="evenodd" d="M88.6772 12.44H85.7185V20.6357H80.8541V12.44H78.1444V8.67014H80.8541V5.34816L85.7185 4.45139V8.67014H88.6772V12.44Z" fill="#061F19"/>
<path fill-rule="evenodd" clip-rule="evenodd" d="M104.071 8.32106C104.639 8.32106 105.16 8.45504 105.633 8.72349V13.0457C105.207 12.785 104.521 12.5974 103.669 12.5974C101.87 12.5974 100.935 13.6315 100.935 15.6548V20.5052H96.0714V8.53969H100.935V11.0684C101.456 9.10657 102.525 8.32106 104.071 8.32106Z" fill="#061F19"/>
<path d="M130.66 0V24" stroke="#171717" stroke-width="0.90862"/>
<path d="M200.66 19.496V20.7594H190.906V19.496H200.66ZM191.347 3.24064V20.7594H189.882V3.24064H191.347ZM199.445 11.0976V12.361H190.906V11.0976H199.445ZM200.601 3.24064V4.51604H190.906V3.24064H200.601Z" fill="black"/>
<path d="M174.34 3.24064H179.973C181.172 3.24064 182.212 3.43717 183.093 3.83021C183.975 4.22326 184.654 4.80481 185.13 5.57487C185.614 6.3369 185.856 7.2754 185.856 8.39037C185.856 9.21658 185.682 9.96658 185.332 10.6404C184.991 11.3142 184.519 11.8797 183.915 12.3369C183.312 12.7861 182.613 13.0949 181.819 13.2634L181.307 13.4559H175.293L175.269 12.1925H180.307C181.212 12.1925 181.966 12.016 182.569 11.6631C183.173 11.3102 183.625 10.8449 183.927 10.2674C184.237 9.68182 184.392 9.05615 184.392 8.39037C184.392 7.59626 184.221 6.91043 183.879 6.33289C183.546 5.74733 183.05 5.29813 182.391 4.98529C181.732 4.67246 180.926 4.51604 179.973 4.51604H175.805V20.7594H174.34V3.24064ZM185.047 20.7594L180.557 12.9265L182.129 12.9144L186.607 20.6029V20.7594H185.047Z" fill="black"/>
<path d="M164.824 4.28743L158.821 20.7594H157.297L163.847 3.24064H164.907L164.824 4.28743ZM170.279 20.7594L164.264 4.28743L164.181 3.24064H165.241L171.803 20.7594H170.279ZM169.207 14.5749V15.8503H160.001V14.5749H169.207Z" fill="black"/>
<path d="M154.093 15.2968H155.558C155.439 16.4759 155.118 17.4947 154.594 18.3529C154.07 19.2032 153.355 19.857 152.45 20.3142C151.545 20.7714 150.453 21 149.175 21C148.19 21 147.297 20.8115 146.495 20.4345C145.701 20.0575 145.018 19.5241 144.447 18.8342C143.875 18.1364 143.434 17.3021 143.125 16.3316C142.815 15.361 142.66 14.2821 142.66 13.0949V10.9051C142.66 9.71791 142.815 8.64305 143.125 7.68048C143.434 6.70989 143.879 5.87567 144.458 5.17781C145.038 4.47995 145.733 3.94251 146.543 3.56551C147.352 3.1885 148.266 3 149.282 3C150.513 3 151.576 3.22861 152.474 3.68583C153.371 4.13503 154.077 4.78476 154.594 5.63503C155.118 6.48529 155.439 7.51203 155.558 8.71524H154.093C153.982 7.76872 153.736 6.96658 153.355 6.30882C152.974 5.65107 152.446 5.14973 151.771 4.80481C151.104 4.45187 150.274 4.2754 149.282 4.2754C148.472 4.2754 147.749 4.43182 147.114 4.74465C146.479 5.05749 145.939 5.50668 145.495 6.09225C145.05 6.66979 144.709 7.36364 144.47 8.1738C144.24 8.98396 144.125 9.88636 144.125 10.881V13.0949C144.125 14.0575 144.236 14.9438 144.458 15.754C144.681 16.5642 145.006 17.266 145.435 17.8596C145.872 18.4532 146.404 18.9144 147.031 19.2433C147.658 19.5722 148.373 19.7366 149.175 19.7366C150.199 19.7366 151.052 19.5722 151.735 19.2433C152.426 18.9064 152.962 18.4091 153.343 17.7513C153.724 17.0936 153.974 16.2754 154.093 15.2968Z" fill="black"/>
<defs>
<linearGradient id="paint0_linear_467_304" x1="1762.35" y1="1435.34" x2="673.186" y2="-143.047" gradientUnits="userSpaceOnUse">
<stop stop-color="#00AC6E"/>
<stop offset="1" stop-color="#177966"/>
</linearGradient>
</defs>
</svg>
